# xmcd CD database file
#
# Track frame offsets:
#	150
#	12186
#	23992
#	35956
#	50623
#	63472
#	76738
#	88524
#	102167
#	117368
#	127879
#	140699
#	153412
#	162738
#	170967
#	180865
#	191251
#	206721
#
# Disc length: 2919 seconds
#
# Revision: 3
# Processed by: cddbd v1.5.2PL0 Copyright (c) Steve Scherf et al.
# Submitted via: CDex 1.51
#
DISCID=f60b6512
DTITLE=Johnny "Guitar" Watson - The Essential Johnny "Guitar" Watson
DYEAR=2002
DGENRE=Blues
TTITLE0=Hot Little Mama
TTITLE1=I Love To Love You
TTITLE2=Too Tired
TTITLE3=Don't Touch Me
TTITLE4=These Lonely Lonely Nights
TTITLE5=Someone Cares For Me
TTITLE6=Oh Baby
TTITLE7=Give A Little
TTITLE8=Three Hours Past Midnight
TTITLE9=Ruben
TTITLE10=Love Me Baby
TTITLE11=She Moves Me
TTITLE12=Love Bandit (Gangster Of Love)
TTITLE13=My Baby And Me
TTITLE14=In The Middle Of The Night
TTITLE15=Ruben (Piano Version)
TTITLE16=Three Hours Past Midnight (Alternate Take)
TTITLE17=Too Tired
EXTD=YEAR: 2002
EXTT0=
EXTT1=
EXTT2=
EXTT3=
EXTT4=
EXTT5=
EXTT6=
EXTT7=
EXTT8=
EXTT9=
EXTT10=
EXTT11=
EXTT12=
EXTT13=
EXTT14=
EXTT15=
EXTT16=
EXTT17=
PLAYORDER=
